<svg id="mermaid-svg" width="100%" xmlns="http://www.w3.org/2000/svg" class="flowchart" style="max-width: 566.28515625px;" viewBox="0 0 566.28515625 738.875" role="graphics-document document" aria-roledescription="flowchart-v2" xmlns:xlink="http://www.w3.org/1999/xlink"><style xmlns="http://www.w3.org/1999/xhtml">@import url("https://cdnjs.cloudflare.com/ajax/libs/font-awesome/6.7.2/css/all.min.css");</style><style>#mermaid-svg{font-family:IBM Plex Mono;font-size:16px;fill:#ccc;}@keyframes edge-animation-frame{from{stroke-dashoffset:0;}}@keyframes dash{to{stroke-dashoffset:0;}}#mermaid-svg .edge-animation-slow{stroke-dasharray:9,5!important;stroke-dashoffset:900;animation:dash 50s linear infinite;stroke-linecap:round;}#mermaid-svg .edge-animation-fast{stroke-dasharray:9,5!important;stroke-dashoffset:900;animation:dash 20s linear infinite;stroke-linecap:round;}#mermaid-svg .error-icon{fill:#a44141;}#mermaid-svg .error-text{fill:#ddd;stroke:#ddd;}#mermaid-svg .edge-thickness-normal{stroke-width:1px;}#mermaid-svg .edge-thickness-thick{stroke-width:3.5px;}#mermaid-svg .edge-pattern-solid{stroke-dasharray:0;}#mermaid-svg .edge-thickness-invisible{stroke-width:0;fill:none;}#mermaid-svg .edge-pattern-dashed{stroke-dasharray:3;}#mermaid-svg .edge-pattern-dotted{stroke-dasharray:2;}#mermaid-svg .marker{fill:lightgrey;stroke:lightgrey;}#mermaid-svg .marker.cross{stroke:lightgrey;}#mermaid-svg svg{font-family:IBM Plex Mono;font-size:16px;}#mermaid-svg p{margin:0;}#mermaid-svg .label{font-family:IBM Plex Mono;color:#ccc;}#mermaid-svg .cluster-label text{fill:#F9FFFE;}#mermaid-svg .cluster-label span{color:#F9FFFE;}#mermaid-svg .cluster-label span p{background-color:transparent;}#mermaid-svg .label text,#mermaid-svg span{fill:#ccc;color:#ccc;}#mermaid-svg .node rect,#mermaid-svg .node circle,#mermaid-svg .node ellipse,#mermaid-svg .node polygon,#mermaid-svg .node path{fill:#1f2020;stroke:#ccc;stroke-width:1px;}#mermaid-svg .rough-node .label text,#mermaid-svg .node .label text,#mermaid-svg .image-shape .label,#mermaid-svg .icon-shape .label{text-anchor:middle;}#mermaid-svg .node .katex path{fill:#000;stroke:#000;stroke-width:1px;}#mermaid-svg .rough-node .label,#mermaid-svg .node .label,#mermaid-svg .image-shape .label,#mermaid-svg .icon-shape .label{text-align:center;}#mermaid-svg .node.clickable{cursor:pointer;}#mermaid-svg .root .anchor path{fill:lightgrey!important;stroke-width:0;stroke:lightgrey;}#mermaid-svg .arrowheadPath{fill:lightgrey;}#mermaid-svg .edgePath .path{stroke:lightgrey;stroke-width:2.0px;}#mermaid-svg .flowchart-link{stroke:lightgrey;fill:none;}#mermaid-svg .edgeLabel{background-color:hsl(0, 0%, 34.4117647059%);text-align:center;}#mermaid-svg .edgeLabel p{background-color:hsl(0, 0%, 34.4117647059%);}#mermaid-svg .edgeLabel rect{opacity:0.5;background-color:hsl(0, 0%, 34.4117647059%);fill:hsl(0, 0%, 34.4117647059%);}#mermaid-svg .labelBkg{background-color:rgba(87.75, 87.75, 87.75, 0.5);}#mermaid-svg .cluster rect{fill:hsl(180, 1.5873015873%, 28.3529411765%);stroke:rgba(255, 255, 255, 0.25);stroke-width:1px;}#mermaid-svg .cluster text{fill:#F9FFFE;}#mermaid-svg .cluster span{color:#F9FFFE;}#mermaid-svg div.mermaidTooltip{position:absolute;text-align:center;max-width:200px;padding:2px;font-family:IBM Plex Mono;font-size:12px;background:hsl(20, 1.5873015873%, 12.3529411765%);border:1px solid rgba(255, 255, 255, 0.25);border-radius:2px;pointer-events:none;z-index:100;}#mermaid-svg .flowchartTitleText{text-anchor:middle;font-size:18px;fill:#ccc;}#mermaid-svg rect.text{fill:none;stroke-width:0;}#mermaid-svg .icon-shape,#mermaid-svg .image-shape{background-color:hsl(0, 0%, 34.4117647059%);text-align:center;}#mermaid-svg .icon-shape p,#mermaid-svg .image-shape p{background-color:hsl(0, 0%, 34.4117647059%);padding:2px;}#mermaid-svg .icon-shape rect,#mermaid-svg .image-shape rect{opacity:0.5;background-color:hsl(0, 0%, 34.4117647059%);fill:hsl(0, 0%, 34.4117647059%);}#mermaid-svg .label-icon{display:inline-block;height:1em;overflow:visible;vertical-align:-0.125em;}#mermaid-svg .node .label-icon path{fill:currentColor;stroke:revert;stroke-width:revert;}#mermaid-svg :root{--mermaid-font-family:"trebuchet ms",verdana,arial,sans-serif;}</style><g><marker id="mermaid-svg_flowchart-v2-pointEnd" class="marker flowchart-v2" viewBox="0 0 10 10" refX="5" refY="5" markerUnits="userSpaceOnUse" markerWidth="8" markerHeight="8" orient="auto"><path d="M 0 0 L 10 5 L 0 10 z" class="arrowMarkerPath" style="stroke-width: 1; stroke-dasharray: 1, 0;"/></marker><marker id="mermaid-svg_flowchart-v2-pointStart" class="marker flowchart-v2" viewBox="0 0 10 10" refX="4.5" refY="5" markerUnits="userSpaceOnUse" markerWidth="8" markerHeight="8" orient="auto"><path d="M 0 5 L 10 10 L 10 0 z" class="arrowMarkerPath" style="stroke-width: 1; stroke-dasharray: 1, 0;"/></marker><marker id="mermaid-svg_flowchart-v2-circleEnd" class="marker flowchart-v2" viewBox="0 0 10 10" refX="11" refY="5" markerUnits="userSpaceOnUse" markerWidth="11" markerHeight="11" orient="auto"><circle cx="5" cy="5" r="5" class="arrowMarkerPath" style="stroke-width: 1; stroke-dasharray: 1, 0;"/></marker><marker id="mermaid-svg_flowchart-v2-circleStart" class="marker flowchart-v2" viewBox="0 0 10 10" refX="-1" refY="5" markerUnits="userSpaceOnUse" markerWidth="11" markerHeight="11" orient="auto"><circle cx="5" cy="5" r="5" class="arrowMarkerPath" style="stroke-width: 1; stroke-dasharray: 1, 0;"/></marker><marker id="mermaid-svg_flowchart-v2-crossEnd" class="marker cross flowchart-v2" viewBox="0 0 11 11" refX="12" refY="5.2" markerUnits="userSpaceOnUse" markerWidth="11" markerHeight="11" orient="auto"><path d="M 1,1 l 9,9 M 10,1 l -9,9" class="arrowMarkerPath" style="stroke-width: 2; stroke-dasharray: 1, 0;"/></marker><marker id="mermaid-svg_flowchart-v2-crossStart" class="marker cross flowchart-v2" viewBox="0 0 11 11" refX="-1" refY="5.2" markerUnits="userSpaceOnUse" markerWidth="11" markerHeight="11" orient="auto"><path d="M 1,1 l 9,9 M 10,1 l -9,9" class="arrowMarkerPath" style="stroke-width: 2; stroke-dasharray: 1, 0;"/></marker><g class="root"><g class="clusters"/><g class="edgePaths"><path d="M320.035,62L320.035,66.167C320.035,70.333,320.035,78.667,320.105,86.417C320.176,94.167,320.316,101.334,320.386,104.917L320.457,108.501" id="L_Attacker_Kyverno_0" class=" edge-thickness-normal edge-pattern-solid edge-thickness-normal edge-pattern-solid flowchart-link" style=";" data-edge="true" data-et="edge" data-id="L_Attacker_Kyverno_0" data-points="W3sieCI6MzIwLjAzNTE1NjI1LCJ5Ijo2Mn0seyJ4IjozMjAuMDM1MTU2MjUsInkiOjg3fSx7IngiOjMyMC41MzUxNTYyNSwieSI6MTEyLjV9XQ==" marker-end="url(#mermaid-svg_flowchart-v2-pointEnd)"/><path d="M230.328,166.5L209.642,172.583C188.956,178.667,147.583,190.833,126.897,208.823C106.211,226.813,106.211,250.625,106.211,262.531L106.211,274.438" id="L_Kyverno_Blocked_0" class=" edge-thickness-normal edge-pattern-solid edge-thickness-normal edge-pattern-solid flowchart-link" style=";" data-edge="true" data-et="edge" data-id="L_Kyverno_Blocked_0" data-points="W3sieCI6MjMwLjMyODA2Mzk2NDg0Mzc1LCJ5IjoxNjYuNX0seyJ4IjoxMDYuMjEwOTM3NSwieSI6MjAzfSx7IngiOjEwNi4yMTA5Mzc1LCJ5IjoyNzguNDM3NX1d" marker-end="url(#mermaid-svg_flowchart-v2-pointEnd)"/><path d="M320.461,166.5L320.361,172.583C320.26,178.667,320.06,190.833,319.96,202.417C319.859,214,319.859,225,319.859,230.5L319.859,236" id="L_Kyverno_Runtime_0" class=" edge-thickness-normal edge-pattern-solid edge-thickness-normal edge-pattern-solid flowchart-link" style=";" data-edge="true" data-et="edge" data-id="L_Kyverno_Runtime_0" data-points="W3sieCI6MzIwLjQ2MDk5ODUzNTE1NjI1LCJ5IjoxNjYuNX0seyJ4IjozMTkuODU5Mzc1LCJ5IjoyMDN9LHsieCI6MzE5Ljg1OTM3NSwieSI6MjQwfV0=" marker-end="url(#mermaid-svg_flowchart-v2-pointEnd)"/><path d="M290.017,341.032L280.677,352.173C271.337,363.313,252.657,385.594,243.317,402.235C233.977,418.875,233.977,429.875,233.977,435.375L233.977,440.875" id="L_Runtime_Falco_0" class=" edge-thickness-normal edge-pattern-solid edge-thickness-normal edge-pattern-solid flowchart-link" style=";" data-edge="true" data-et="edge" data-id="L_Runtime_Falco_0" data-points="W3sieCI6MjkwLjAxNjgzNDU1MTk2MDIsInkiOjM0MS4wMzI0NTk1NTE5NjAyfSx7IngiOjIzMy45NzY1NjI1LCJ5Ijo0MDcuODc1fSx7IngiOjIzMy45NzY1NjI1LCJ5Ijo0NDQuODc1fV0=" marker-end="url(#mermaid-svg_flowchart-v2-pointEnd)"/><path d="M348.157,342.578L356.448,353.461C364.74,364.344,381.323,386.109,389.615,402.492C397.906,418.875,397.906,429.875,397.906,435.375L397.906,440.875" id="L_Runtime_Tetragon_0" class=" edge-thickness-normal edge-pattern-solid edge-thickness-normal edge-pattern-solid flowchart-link" style=";" data-edge="true" data-et="edge" data-id="L_Runtime_Tetragon_0" data-points="W3sieCI6MzQ4LjE1NjUxOTE4NjY1MDUsInkiOjM0Mi41Nzc4NTU4MTMzNDk1fSx7IngiOjM5Ny45MDYyNSwieSI6NDA3Ljg3NX0seyJ4IjozOTcuOTA2MjUsInkiOjQ0NC44NzV9XQ==" marker-end="url(#mermaid-svg_flowchart-v2-pointEnd)"/><path d="M373.952,498.875L368.481,505.042C363.009,511.208,352.067,523.542,329.413,535.657C306.759,547.772,272.393,559.669,255.209,565.618L238.026,571.566" id="L_Tetragon_Sigkill_0" class=" edge-thickness-normal edge-pattern-solid edge-thickness-normal edge-pattern-solid flowchart-link" style=";" data-edge="true" data-et="edge" data-id="L_Tetragon_Sigkill_0" data-points="W3sieCI6MzczLjk1MTY2MDE1NjI1LCJ5Ijo0OTguODc1fSx7IngiOjM0MS4xMjUsInkiOjUzNS44NzV9LHsieCI6MjM0LjI0NjM5ODkyNTc4MTI1LCJ5Ijo1NzIuODc1fV0=" marker-end="url(#mermaid-svg_flowchart-v2-pointEnd)"/><path d="M233.977,498.875L233.977,505.042C233.977,511.208,233.977,523.542,246.504,535.592C259.031,547.642,284.086,559.408,296.614,565.291L309.141,571.175" id="L_Falco_Shuffle_0" class=" edge-thickness-normal edge-pattern-solid edge-thickness-normal edge-pattern-solid flowchart-link" style=";" data-edge="true" data-et="edge" data-id="L_Falco_Shuffle_0" data-points="W3sieCI6MjMzLjk3NjU2MjUsInkiOjQ5OC44NzV9LHsieCI6MjMzLjk3NjU2MjUsInkiOjUzNS44NzV9LHsieCI6MzEyLjc2MTkwMTg1NTQ2ODc1LCJ5Ijo1NzIuODc1fV0=" marker-end="url(#mermaid-svg_flowchart-v2-pointEnd)"/><path d="M402.956,166.5L421.697,172.583C440.438,178.667,477.92,190.833,496.661,213.99C515.402,237.146,515.402,271.292,515.402,305.438C515.402,339.583,515.402,373.729,515.402,401.469C515.402,429.208,515.402,450.542,515.402,471.875C515.402,493.208,515.402,514.542,502.027,531.106C488.651,547.67,461.9,559.466,448.524,565.364L435.148,571.261" id="L_Kyverno_Shuffle_0" class=" edge-thickness-normal edge-pattern-dotted edge-thickness-normal edge-pattern-solid flowchart-link" style=";" data-edge="true" data-et="edge" data-id="L_Kyverno_Shuffle_0" data-points="W3sieCI6NDAyLjk1NTY4ODQ3NjU2MjUsInkiOjE2Ni41fSx7IngiOjUxNS40MDIzNDM3NSwieSI6MjAzfSx7IngiOjUxNS40MDIzNDM3NSwieSI6MzA1LjQzNzV9LHsieCI6NTE1LjQwMjM0Mzc1LCJ5Ijo0MDcuODc1fSx7IngiOjUxNS40MDIzNDM3NSwieSI6NDcxLjg3NX0seyJ4Ijo1MTUuNDAyMzQzNzUsInkiOjUzNS44NzV9LHsieCI6NDMxLjQ4ODQwMzMyMDMxMjUsInkiOjU3Mi44NzV9XQ==" marker-end="url(#mermaid-svg_flowchart-v2-pointEnd)"/><path d="M414.43,498.875L418.204,505.042C421.978,511.208,429.526,523.542,427.343,535.414C425.16,547.286,413.246,558.697,407.289,564.403L401.332,570.108" id="L_Tetragon_Shuffle_0" class=" edge-thickness-normal edge-pattern-dotted edge-thickness-normal edge-pattern-solid flowchart-link" style=";" data-edge="true" data-et="edge" data-id="L_Tetragon_Shuffle_0" data-points="W3sieCI6NDE0LjQzMDIzNjgxNjQwNjI1LCJ5Ijo0OTguODc1fSx7IngiOjQzNy4wNzQyMTg3NSwieSI6NTM1Ljg3NX0seyJ4IjozOTguNDQzNzI1NTg1OTM3NSwieSI6NTcyLjg3NX1d" marker-end="url(#mermaid-svg_flowchart-v2-pointEnd)"/><path d="M370.254,626.875L370.254,631.042C370.254,635.208,370.254,643.542,370.254,651.208C370.254,658.875,370.254,665.875,370.254,669.375L370.254,672.875" id="L_Shuffle_Playbook_0" class=" edge-thickness-normal edge-pattern-solid edge-thickness-normal edge-pattern-solid flowchart-link" style=";" data-edge="true" data-et="edge" data-id="L_Shuffle_Playbook_0" data-points="W3sieCI6MzcwLjI1MzkwNjI1LCJ5Ijo2MjYuODc1fSx7IngiOjM3MC4yNTM5MDYyNSwieSI6NjUxLjg3NX0seyJ4IjozNzAuMjUzOTA2MjUsInkiOjY3Ni44NzV9XQ==" marker-end="url(#mermaid-svg_flowchart-v2-pointEnd)"/></g><g class="edgeLabels"><g class="edgeLabel"><g class="label" data-id="L_Attacker_Kyverno_0" transform="translate(0, 0)"><foreignObject width="0" height="0"><div xmlns="http://www.w3.org/1999/xhtml" class="labelBkg" style="display: table-cell; white-space: nowrap; line-height: 1.5; max-width: 200px; text-align: center;"><span class="edgeLabel "></span></div></foreignObject></g></g><g class="edgeLabel" transform="translate(106.2109375, 203)"><g class="label" data-id="L_Kyverno_Blocked_0" transform="translate(-31.9921875, -12)"><foreignObject width="63.984375" height="24"><div xmlns="http://www.w3.org/1999/xhtml" class="labelBkg" style="display: table-cell; white-space: nowrap; line-height: 1.5; max-width: 200px; text-align: center;"><span class="edgeLabel "><p>Prevented</p></span></div></foreignObject></g></g><g class="edgeLabel" transform="translate(319.859375, 203)"><g class="label" data-id="L_Kyverno_Runtime_0" transform="translate(-57.328125, -12)"><foreignObject width="114.65625" height="24"><div xmlns="http://www.w3.org/1999/xhtml" class="labelBkg" style="display: table-cell; white-space: nowrap; line-height: 1.5; max-width: 200px; text-align: center;"><span class="edgeLabel "><p>Allowed/Runtime</p></span></div></foreignObject></g></g><g class="edgeLabel" transform="translate(233.9765625, 407.875)"><g class="label" data-id="L_Runtime_Falco_0" transform="translate(-20.875, -12)"><foreignObject width="41.75" height="24"><div xmlns="http://www.w3.org/1999/xhtml" class="labelBkg" style="display: table-cell; white-space: nowrap; line-height: 1.5; max-width: 200px; text-align: center;"><span class="edgeLabel "><p>Detect</p></span></div></foreignObject></g></g><g class="edgeLabel" transform="translate(397.90625, 407.875)"><g class="label" data-id="L_Runtime_Tetragon_0" transform="translate(-25.3203125, -12)"><foreignObject width="50.640625" height="24"><div xmlns="http://www.w3.org/1999/xhtml" class="labelBkg" style="display: table-cell; white-space: nowrap; line-height: 1.5; max-width: 200px; text-align: center;"><span class="edgeLabel "><p>Enforce</p></span></div></foreignObject></g></g><g class="edgeLabel" transform="translate(341.125, 535.875)"><g class="label" data-id="L_Tetragon_Sigkill_0" transform="translate(-21.765625, -12)"><foreignObject width="43.53125" height="24"><div xmlns="http://www.w3.org/1999/xhtml" class="labelBkg" style="display: table-cell; white-space: nowrap; line-height: 1.5; max-width: 200px; text-align: center;"><span class="edgeLabel "><p>Kernel</p></span></div></foreignObject></g></g><g class="edgeLabel" transform="translate(233.9765625, 535.875)"><g class="label" data-id="L_Falco_Shuffle_0" transform="translate(-16.4375, -12)"><foreignObject width="32.875" height="24"><div xmlns="http://www.w3.org/1999/xhtml" class="labelBkg" style="display: table-cell; white-space: nowrap; line-height: 1.5; max-width: 200px; text-align: center;"><span class="edgeLabel "><p>Alert</p></span></div></foreignObject></g></g><g class="edgeLabel" transform="translate(515.40234375, 407.875)"><g class="label" data-id="L_Kyverno_Shuffle_0" transform="translate(-42.8828125, -12)"><foreignObject width="85.765625" height="24"><div xmlns="http://www.w3.org/1999/xhtml" class="labelBkg" style="display: table-cell; white-space: nowrap; line-height: 1.5; max-width: 200px; text-align: center;"><span class="edgeLabel "><p>Report Block</p></span></div></foreignObject></g></g><g class="edgeLabel" transform="translate(433.42282, 539.37229)"><g class="label" data-id="L_Tetragon_Shuffle_0" transform="translate(-36.21875, -12)"><foreignObject width="72.4375" height="24"><div xmlns="http://www.w3.org/1999/xhtml" class="labelBkg" style="display: table-cell; white-space: nowrap; line-height: 1.5; max-width: 200px; text-align: center;"><span class="edgeLabel "><p>Report Kill</p></span></div></foreignObject></g></g><g class="edgeLabel"><g class="label" data-id="L_Shuffle_Playbook_0" transform="translate(0, 0)"><foreignObject width="0" height="0"><div xmlns="http://www.w3.org/1999/xhtml" class="labelBkg" style="display: table-cell; white-space: nowrap; line-height: 1.5; max-width: 200px; text-align: center;"><span class="edgeLabel "></span></div></foreignObject></g></g></g><g class="nodes"><g class="node default  " id="flowchart-Attacker-0" transform="translate(320.03515625, 35)"><rect class="basic label-container" style="" x="-57.5390625" y="-27" width="115.078125" height="54"/><g class="label" style="" transform="translate(-27.5390625, -12)"><rect/><foreignObject width="55.078125" height="24"><div xmlns="http://www.w3.org/1999/xhtml" style="display: table-cell; white-space: nowrap; line-height: 1.5; max-width: 200px; text-align: center;"><span class="nodeLabel "><p>Attacker</p></span></div></foreignObject></g></g><g class="node default  " id="flowchart-Kyverno-1" transform="translate(320.03515625, 139)"><g class="basic label-container outer-path"><path d="M-100.671875 -27 C-54.478437629031994 -27, -8.285000258063988 -27, 100.671875 -27 C100.671875 -27, 100.671875 -27, 100.671875 -27 C100.76620287471519 -26.9960985702428, 100.86053074943038 -26.9921971404856, 101.08477172736166 -26.982922465033347 C101.17237340709794 -26.97200292704184, 101.25997508683422 -26.96108338905033, 101.49484795140367 -26.931806517013612 C101.61212341679672 -26.907216437792346, 101.72939888218977 -26.88262635857108, 101.899302435704 -26.847001329696653 C102.02718676705514 -26.808928514678072, 102.15507109840627 -26.770855699659492, 102.29537234602341 -26.729086208503173 C102.40789960914721 -26.685177934179944, 102.520426872271 -26.64126965985671, 102.68035212326485 -26.578866633275286 C102.76763855534259 -26.53619489681099, 102.8549249874203 -26.49352316034669, 103.05161196518537 -26.397368756032446 C103.14356004416936 -26.34257959327382, 103.23550812315335 -26.287790430515187, 103.40661579061214 -26.185832391312644 C103.49515683391934 -26.122615301470827, 103.58369787722654 -26.059398211629013, 103.74293856344833 -25.94570254698197 C103.82881515698165 -25.872968782428863, 103.91469175051495 -25.800235017875757, 104.0582828581287 -25.678619553365657 C104.1746298763854 -25.562272535108963, 104.2909768946421 -25.445925516852274, 104.35049455336566 -25.386407858128706 C104.45234366274799 -25.266154841914066, 104.55419277213034 -25.14590182569943, 104.61757754698196 -25.07106356344834 C104.67021767125726 -24.99733648213508, 104.72285779553255 -24.923609400821814, 104.85770739131264 -24.734740790612136 C104.92335443370797 -24.62457083846626, 104.9890014761033 -24.514400886320377, 105.06924375603245 -24.37973696518537 C105.11953936243039 -24.276855657898164, 105.16983496882833 -24.173974350610955, 105.25074163327528 -24.008477123264846 C105.29046325853852 -23.906679322130657, 105.33018488380178 -23.80488152099647, 105.40096120850318 -23.623497346023417 C105.43638772495507 -23.5045017748701, 105.47181424140696 -23.385506203716783, 105.51887632969665 -23.227427435703994 C105.54875677911011 -23.08492103791711, 105.57863722852356 -22.942414640130224, 105.60368151701361 -22.82297295140367 C105.61673848392186 -22.718223809607217, 105.62979545083013 -22.613474667810763, 105.65479746503335 -22.412896727361662 C105.65938284706054 -22.30203241138013, 105.66396822908773 -22.191168095398595, 105.671875 -22 C105.671875 -22, 105.671875 -22, 105.671875 -22 C105.671875 -11.712377383021984, 105.671875 -1.424754766043968, 105.671875 22 C105.671875 22, 105.671875 22, 105.671875 22 C105.66772818341285 22.10026078126306, 105.6635813668257 22.200521562526117, 105.65479746503335 22.412896727361662 C105.64017082999818 22.530238486597884, 105.62554419496301 22.647580245834103, 105.60368151701361 22.82297295140367 C105.57497266937943 22.959891724088447, 105.54626382174524 23.09681049677322, 105.51887632969665 23.227427435703994 C105.47824676482212 23.363899738435794, 105.43761719994758 23.500372041167594, 105.40096120850318 23.623497346023417 C105.36852338108443 23.706628373087767, 105.33608555366568 23.789759400152118, 105.25074163327528 24.008477123264846 C105.18400481052093 24.144989476149888, 105.11726798776657 24.281501829034926, 105.06924375603245 24.379736965185366 C105.02197786882294 24.459059358731224, 104.97471198161344 24.53838175227708, 104.85770739131264 24.734740790612133 C104.77529941547014 24.85016034213195, 104.69289143962763 24.965579893651764, 104.61757754698196 25.07106356344834 C104.52676446516658 25.178286366536902, 104.4359513833512 25.28550916962546, 104.35049455336566 25.386407858128706 C104.27671293593062 25.460189475563745, 104.20293131849559 25.53397109299878, 104.0582828581287 25.678619553365657 C103.96787654046493 25.755189798557325, 103.87747022280114 25.831760043748996, 103.74293856344833 25.94570254698197 C103.62862783030613 26.02731884171956, 103.51431709716393 26.108935136457145, 103.40661579061214 26.185832391312644 C103.31364042544809 26.24123368376817, 103.22066506028405 26.296634976223697, 103.05161196518537 26.397368756032446 C102.92794056139765 26.457828021292595, 102.80426915760994 26.51828728655274, 102.68035212326485 26.578866633275286 C102.55880839288528 26.626293144039206, 102.4372646625057 26.673719654803126, 102.29537234602341 26.729086208503173 C102.14281128582772 26.774505604003007, 101.99025022563201 26.81992499950284, 101.899302435704 26.847001329696653 C101.79849344685113 26.8681387518659, 101.69768445799825 26.889276174035146, 101.49484795140367 26.931806517013612 C101.38548698481974 26.945438347282124, 101.27612601823579 26.959070177550633, 101.08477172736166 26.982922465033347 C100.98171106312782 26.987185085636774, 100.87865039889398 26.991447706240205, 100.671875 27 C100.671875 27, 100.671875 27, 100.671875 27 C56.66692919070019 27, 12.661983381400375 27, -100.671875 27 C-100.671875 27, -100.671875 27, -100.671875 27 C-100.75870855988033 26.996408537397205, -100.84554211976067 26.992817074794413, -101.08477172736166 26.982922465033347 C-101.18064291919727 26.970972133433637, -101.27651411103288 26.959021801833927, -101.49484795140367 26.931806517013612 C-101.62203377306963 26.90513845460085, -101.7492195947356 26.878470392188085, -101.899302435704 26.847001329696653 C-102.02296619353777 26.81018503385522, -102.14662995137154 26.773368738013783, -102.29537234602341 26.729086208503173 C-102.4012327776294 26.687779339910648, -102.50709320923539 26.64647247131812, -102.68035212326485 26.578866633275286 C-102.76353342668088 26.53820177192588, -102.84671473009689 26.497536910576475, -103.05161196518537 26.397368756032446 C-103.15994468336365 26.332816467458944, -103.26827740154191 26.26826417888544, -103.40661579061214 26.185832391312644 C-103.53629019519322 26.093246646008705, -103.66596459977428 26.000660900704766, -103.74293856344833 25.94570254698197 C-103.82551916666426 25.875760343829356, -103.9080997698802 25.805818140676745, -104.0582828581287 25.67861955336566 C-104.15135900371166 25.58554340778271, -104.24443514929462 25.492467262199753, -104.35049455336566 25.386407858128706 C-104.45713612764162 25.260496389306528, -104.56377770191756 25.134584920484347, -104.61757754698196 25.07106356344834 C-104.67760989128224 24.98698303380319, -104.73764223558254 24.90290250415804, -104.85770739131264 24.734740790612133 C-104.93931351442676 24.597788045290393, -105.02091963754087 24.460835299968654, -105.06924375603245 24.37973696518537 C-105.11637130567235 24.283336021575426, -105.16349885531226 24.18693507796548, -105.25074163327528 24.00847712326485 C-105.29889551160673 23.88506930956796, -105.34704938993816 23.761661495871067, -105.40096120850318 23.623497346023417 C-105.43339553423748 23.51455236632251, -105.46582985997176 23.4056073866216, -105.51887632969665 23.227427435703994 C-105.54034415644794 23.125042675143384, -105.56181198319925 23.022657914582773, -105.60368151701361 22.82297295140367 C-105.62270450421151 22.67036158328229, -105.64172749140941 22.51775021516091, -105.65479746503335 22.412896727361662 C-105.66105275234999 22.261657823925564, -105.66730803966664 22.11041892048946, -105.671875 22 C-105.671875 22, -105.671875 22, -105.671875 22 C-105.671875 4.448839476175529, -105.671875 -13.102321047648942, -105.671875 -22 C-105.671875 -22, -105.671875 -22, -105.671875 -22 C-105.66629278885414 -22.1349654220045, -105.66071057770827 -22.269930844008996, -105.65479746503335 -22.41289672736166 C-105.64303647676182 -22.50724891778816, -105.6312754884903 -22.601601108214663, -105.60368151701361 -22.82297295140367 C-105.57812685606508 -22.94484871799775, -105.55257219511654 -23.06672448459183, -105.51887632969665 -23.227427435703994 C-105.49182795055643 -23.31828133969802, -105.4647795714162 -23.40913524369205, -105.40096120850318 -23.623497346023417 C-105.370527121083 -23.70149322757075, -105.34009303366282 -23.779489109118085, -105.25074163327528 -24.008477123264846 C-105.19122417348463 -24.13022203317268, -105.13170671369396 -24.251966943080514, -105.06924375603245 -24.379736965185366 C-104.99212426865522 -24.509160164218454, -104.91500478127799 -24.638583363251545, -104.85770739131264 -24.734740790612133 C-104.78594592921725 -24.835248971850394, -104.71418446712185 -24.93575715308865, -104.61757754698196 -25.07106356344834 C-104.54101981204963 -25.161455110276847, -104.46446207711729 -25.25184665710535, -104.35049455336566 -25.386407858128706 C-104.27224439296624 -25.46465801852812, -104.19399423256684 -25.542908178927533, -104.0582828581287 -25.678619553365657 C-103.99122467420388 -25.73541493800158, -103.92416649027906 -25.7922103226375, -103.74293856344833 -25.945702546981966 C-103.65182294705993 -26.010757846672004, -103.56070733067152 -26.075813146362037, -103.40661579061214 -26.185832391312644 C-103.32573832223703 -26.23402490199121, -103.24486085386192 -26.282217412669773, -103.05161196518537 -26.397368756032446 C-102.91942714447671 -26.461989977218774, -102.78724232376806 -26.5266111984051, -102.68035212326485 -26.578866633275286 C-102.53974567840648 -26.6337314383107, -102.3991392335481 -26.68859624334611, -102.29537234602341 -26.729086208503173 C-102.16283398252328 -26.7685445889247, -102.03029561902314 -26.80800296934623, -101.899302435704 -26.847001329696653 C-101.76348030739591 -26.875480235185563, -101.62765817908782 -26.903959140674477, -101.49484795140367 -26.931806517013612 C-101.33231307959323 -26.952066467656362, -101.16977820778281 -26.97232641829911, -101.08477172736167 -26.982922465033347 C-100.96775805854809 -26.987762186175022, -100.85074438973449 -26.992601907316697, -100.671875 -27 C-100.671875 -27, -100.671875 -27, -100.671875 -27" stroke="none" stroke-width="0" fill="#1f2020" style=""/><path d="M-100.671875 -27 C-41.07665273894258 -27, 18.518569522114845 -27, 100.671875 -27 M-100.671875 -27 C-48.97054982462352 -27, 2.730775350752964 -27, 100.671875 -27 M100.671875 -27 C100.671875 -27, 100.671875 -27, 100.671875 -27 M100.671875 -27 C100.671875 -27, 100.671875 -27, 100.671875 -27 M100.671875 -27 C100.80419631628135 -26.994527149875786, 100.9365176325627 -26.989054299751576, 101.08477172736166 -26.982922465033347 M100.671875 -27 C100.8195915812885 -26.993890397005014, 100.96730816257701 -26.98778079401003, 101.08477172736166 -26.982922465033347 M101.08477172736166 -26.982922465033347 C101.23619341374848 -26.964047771509012, 101.3876151001353 -26.945173077984677, 101.49484795140367 -26.931806517013612 M101.08477172736166 -26.982922465033347 C101.2476128920762 -26.962624335019914, 101.41045405679075 -26.942326205006484, 101.49484795140367 -26.931806517013612 M101.49484795140367 -26.931806517013612 C101.6473576852644 -26.899828588594563, 101.79986741912514 -26.867850660175517, 101.899302435704 -26.847001329696653 M101.49484795140367 -26.931806517013612 C101.62881665008138 -26.903716234850897, 101.76278534875907 -26.875625952688182, 101.899302435704 -26.847001329696653 M101.899302435704 -26.847001329696653 C102.01026493737119 -26.81396636164905, 102.12122743903836 -26.780931393601453, 102.29537234602341 -26.729086208503173 M101.899302435704 -26.847001329696653 C102.03725740197004 -26.805930356763156, 102.17521236823606 -26.764859383829656, 102.29537234602341 -26.729086208503173 M102.29537234602341 -26.729086208503173 C102.4301098949886 -26.676511453751562, 102.5648474439538 -26.62393669899995, 102.68035212326485 -26.578866633275286 M102.29537234602341 -26.729086208503173 C102.41876148003757 -26.68093961900655, 102.54215061405174 -26.632793029509934, 102.68035212326485 -26.578866633275286 M102.68035212326485 -26.578866633275286 C102.75737633257002 -26.54121179182279, 102.83440054187518 -26.503556950370292, 103.05161196518537 -26.397368756032446 M102.68035212326485 -26.578866633275286 C102.80783489813707 -26.516544102228988, 102.93531767300931 -26.454221571182686, 103.05161196518537 -26.397368756032446 M103.05161196518537 -26.397368756032446 C103.1835613196994 -26.318744006714702, 103.3155106742134 -26.24011925739696, 103.40661579061214 -26.185832391312644 M103.05161196518537 -26.397368756032446 C103.12601101375932 -26.353036545654074, 103.20041006233328 -26.308704335275703, 103.40661579061214 -26.185832391312644 M103.40661579061214 -26.185832391312644 C103.51920527672941 -26.10544504332958, 103.63179476284668 -26.02505769534652, 103.74293856344833 -25.94570254698197 M103.40661579061214 -26.185832391312644 C103.48757528457833 -26.12802842365608, 103.5685347785445 -26.07022445599951, 103.74293856344833 -25.94570254698197 M103.74293856344833 -25.94570254698197 C103.83114060386613 -25.870999229385145, 103.91934264428394 -25.796295911788324, 104.0582828581287 -25.678619553365657 M103.74293856344833 -25.94570254698197 C103.80720512111442 -25.89127154917917, 103.87147167878051 -25.836840551376365, 104.0582828581287 -25.678619553365657 M104.0582828581287 -25.678619553365657 C104.17515825141749 -25.561744160076874, 104.29203364470628 -25.44486876678809, 104.35049455336566 -25.386407858128706 M104.0582828581287 -25.678619553365657 C104.16546751170362 -25.57143489979074, 104.27265216527854 -25.464250246215826, 104.35049455336566 -25.386407858128706 M104.35049455336566 -25.386407858128706 C104.44621335448072 -25.27339288320806, 104.54193215559577 -25.160377908287415, 104.61757754698196 -25.07106356344834 M104.35049455336566 -25.386407858128706 C104.43404013649302 -25.287765774526758, 104.51758571962039 -25.18912369092481, 104.61757754698196 -25.07106356344834 M104.61757754698196 -25.07106356344834 C104.66599413536402 -25.00325191220896, 104.71441072374606 -24.935440260969575, 104.85770739131264 -24.734740790612136 M104.61757754698196 -25.07106356344834 C104.70283552102534 -24.951652341088256, 104.78809349506871 -24.83224111872817, 104.85770739131264 -24.734740790612136 M104.85770739131264 -24.734740790612136 C104.93766563176167 -24.600553549229787, 105.01762387221072 -24.46636630784744, 105.06924375603245 -24.37973696518537 M104.85770739131264 -24.734740790612136 C104.92329664699821 -24.6246678170782, 104.98888590268376 -24.514594843544263, 105.06924375603245 -24.37973696518537 M105.06924375603245 -24.37973696518537 C105.1405360840349 -24.23390617737441, 105.21182841203736 -24.088075389563457, 105.25074163327528 -24.008477123264846 M105.06924375603245 -24.37973696518537 C105.11480063050197 -24.28654888898918, 105.16035750497151 -24.193360812792992, 105.25074163327528 -24.008477123264846 M105.25074163327528 -24.008477123264846 C105.31059830411965 -23.855077622746233, 105.37045497496402 -23.701678122227616, 105.40096120850318 -23.623497346023417 M105.25074163327528 -24.008477123264846 C105.29097211340043 -23.90537523888394, 105.33120259352557 -23.802273354503036, 105.40096120850318 -23.623497346023417 M105.40096120850318 -23.623497346023417 C105.42658369628474 -23.53743292667594, 105.4522061840663 -23.451368507328464, 105.51887632969665 -23.227427435703994 M105.40096120850318 -23.623497346023417 C105.44272095695985 -23.483228823557518, 105.48448070541652 -23.342960301091622, 105.51887632969665 -23.227427435703994 M105.51887632969665 -23.227427435703994 C105.54749838357594 -23.0909226014172, 105.57612043745522 -22.95441776713041, 105.60368151701361 -22.82297295140367 M105.51887632969665 -23.227427435703994 C105.54614902659496 -23.09735797994936, 105.57342172349328 -22.967288524194732, 105.60368151701361 -22.82297295140367 M105.60368151701361 -22.82297295140367 C105.61620530037924 -22.722501259255598, 105.62872908374487 -22.62202956710752, 105.65479746503335 -22.412896727361662 M105.60368151701361 -22.82297295140367 C105.61708691475316 -22.71542853327627, 105.6304923124927 -22.607884115148867, 105.65479746503335 -22.412896727361662 M105.65479746503335 -22.412896727361662 C105.66084626259953 -22.266650285798256, 105.6668950601657 -22.12040384423485, 105.671875 -22 M105.65479746503335 -22.412896727361662 C105.66079853878396 -22.267804141275775, 105.66679961253458 -22.122711555189888, 105.671875 -22 M105.671875 -22 C105.671875 -22, 105.671875 -22, 105.671875 -22 M105.671875 -22 C105.671875 -22, 105.671875 -22, 105.671875 -22 M105.671875 -22 C105.671875 -6.426984046153377, 105.671875 9.146031907693246, 105.671875 22 M105.671875 -22 C105.671875 -11.972774981008842, 105.671875 -1.945549962017683, 105.671875 22 M105.671875 22 C105.671875 22, 105.671875 22, 105.671875 22 M105.671875 22 C105.671875 22, 105.671875 22, 105.671875 22 M105.671875 22 C105.6663159109967 22.134406380139758, 105.66075682199339 22.268812760279513, 105.65479746503335 22.412896727361662 M105.671875 22 C105.66744906576794 22.107009223725935, 105.6630231315359 22.21401844745187, 105.65479746503335 22.412896727361662 M105.65479746503335 22.412896727361662 C105.63514987422953 22.570518959962037, 105.6155022834257 22.728141192562415, 105.60368151701361 22.82297295140367 M105.65479746503335 22.412896727361662 C105.64277342123208 22.50935927321603, 105.6307493774308 22.6058218190704, 105.60368151701361 22.82297295140367 M105.60368151701361 22.82297295140367 C105.57594157574759 22.955270797729202, 105.54820163448159 23.087568644054734, 105.51887632969665 23.227427435703994 M105.60368151701361 22.82297295140367 C105.58564177750719 22.909008414207488, 105.56760203800079 22.9950438770113, 105.51887632969665 23.227427435703994 M105.51887632969665 23.227427435703994 C105.4919406670187 23.317902731775188, 105.46500500434075 23.408378027846386, 105.40096120850318 23.623497346023417 M105.51887632969665 23.227427435703994 C105.48478275725643 23.341945726845918, 105.4506891848162 23.45646401798784, 105.40096120850318 23.623497346023417 M105.40096120850318 23.623497346023417 C105.36844954816114 23.706817590653564, 105.33593788781911 23.79013783528371, 105.25074163327528 24.008477123264846 M105.40096120850318 23.623497346023417 C105.3578060717486 23.734094482977085, 105.31465093499402 23.844691619930753, 105.25074163327528 24.008477123264846 M105.25074163327528 24.008477123264846 C105.19166979176316 24.129310506414566, 105.13259795025104 24.25014388956429, 105.06924375603245 24.379736965185366 M105.25074163327528 24.008477123264846 C105.17947592605883 24.154253457387686, 105.10821021884236 24.30002979151053, 105.06924375603245 24.379736965185366 M105.06924375603245 24.379736965185366 C105.00224674031827 24.492172464879314, 104.93524972460408 24.604607964573262, 104.85770739131264 24.734740790612133 M105.06924375603245 24.379736965185366 C105.0149347934512 24.470879164290647, 104.96062583086996 24.56202136339593, 104.85770739131264 24.734740790612133 M104.85770739131264 24.734740790612133 C104.77460268793794 24.85113616975635, 104.69149798456323 24.96753154890057, 104.61757754698196 25.07106356344834 M104.85770739131264 24.734740790612133 C104.80159354803169 24.81333311810625, 104.74547970475072 24.891925445600368, 104.61757754698196 25.07106356344834 M104.61757754698196 25.07106356344834 C104.55383537558623 25.146323803001664, 104.4900932041905 25.221584042554987, 104.35049455336566 25.386407858128706 M104.61757754698196 25.07106356344834 C104.53215905536324 25.17191698592744, 104.44674056374451 25.27277040840654, 104.35049455336566 25.386407858128706 M104.35049455336566 25.386407858128706 C104.28502427669912 25.451878134795255, 104.21955400003256 25.517348411461803, 104.0582828581287 25.678619553365657 M104.35049455336566 25.386407858128706 C104.2810354781979 25.45586693329648, 104.21157640303011 25.525326008464255, 104.0582828581287 25.678619553365657 M104.0582828581287 25.678619553365657 C103.95162872259884 25.768950998327256, 103.84497458706899 25.85928244328886, 103.74293856344833 25.94570254698197 M104.0582828581287 25.678619553365657 C103.95766518242662 25.763838377649332, 103.85704750672456 25.84905720193301, 103.74293856344833 25.94570254698197 M103.74293856344833 25.94570254698197 C103.6607163049879 26.00440811115807, 103.57849404652747 26.063113675334172, 103.40661579061214 26.185832391312644 M103.74293856344833 25.94570254698197 C103.63048126487217 26.025995514874733, 103.51802396629601 26.106288482767493, 103.40661579061214 26.185832391312644 M103.40661579061214 26.185832391312644 C103.27893147704943 26.26191572785227, 103.15124716348672 26.33799906439189, 103.05161196518537 26.397368756032446 M103.40661579061214 26.185832391312644 C103.32627228191305 26.233706731085206, 103.24592877321395 26.281581070857765, 103.05161196518537 26.397368756032446 M103.05161196518537 26.397368756032446 C102.94273761969662 26.450594180280305, 102.83386327420787 26.50381960452816, 102.68035212326485 26.578866633275286 M103.05161196518537 26.397368756032446 C102.97426589759804 26.435180944411243, 102.89691983001072 26.472993132790045, 102.68035212326485 26.578866633275286 M102.68035212326485 26.578866633275286 C102.56345909734253 26.624478433528733, 102.44656607142021 26.670090233782183, 102.29537234602341 26.729086208503173 M102.68035212326485 26.578866633275286 C102.56953336484627 26.622108246993825, 102.45871460642766 26.66534986071236, 102.29537234602341 26.729086208503173 M102.29537234602341 26.729086208503173 C102.2110720223138 26.754183502258336, 102.1267716986042 26.779280796013502, 101.899302435704 26.847001329696653 M102.29537234602341 26.729086208503173 C102.19656088401779 26.75850365530771, 102.09774942201216 26.787921102112243, 101.899302435704 26.847001329696653 M101.899302435704 26.847001329696653 C101.79716533873209 26.86841722685427, 101.69502824176017 26.88983312401189, 101.49484795140367 26.931806517013612 M101.899302435704 26.847001329696653 C101.81496563340154 26.86468489755064, 101.73062883109908 26.882368465404625, 101.49484795140367 26.931806517013612 M101.49484795140367 26.931806517013612 C101.38950182206528 26.94493789834137, 101.28415569272688 26.95806927966912, 101.08477172736166 26.982922465033347 M101.49484795140367 26.931806517013612 C101.34379854437417 26.95063480596445, 101.19274913734466 26.96946309491529, 101.08477172736166 26.982922465033347 M101.08477172736166 26.982922465033347 C100.9311666972523 26.989275616073094, 100.77756166714292 26.995628767112844, 100.671875 27 M101.08477172736166 26.982922465033347 C100.99875933754139 26.986479963791226, 100.91274694772112 26.990037462549104, 100.671875 27 M100.671875 27 C100.671875 27, 100.671875 27, 100.671875 27 M100.671875 27 C100.671875 27, 100.671875 27, 100.671875 27 M100.671875 27 C32.747043075131515 27, -35.17778884973697 27, -100.671875 27 M100.671875 27 C39.12410973977082 27, -22.423655520458354 27, -100.671875 27 M-100.671875 27 C-100.671875 27, -100.671875 27, -100.671875 27 M-100.671875 27 C-100.671875 27, -100.671875 27, -100.671875 27 M-100.671875 27 C-100.82082182903066 26.993839513582014, -100.96976865806131 26.987679027164024, -101.08477172736166 26.982922465033347 M-100.671875 27 C-100.7991250723554 26.994736898076077, -100.92637514471079 26.989473796152154, -101.08477172736166 26.982922465033347 M-101.08477172736166 26.982922465033347 C-101.18367251339899 26.97059449491022, -101.28257329943632 26.958266524787092, -101.49484795140367 26.931806517013612 M-101.08477172736166 26.982922465033347 C-101.18052659207326 26.970986633594524, -101.27628145678486 26.959050802155698, -101.49484795140367 26.931806517013612 M-101.49484795140367 26.931806517013612 C-101.58993552056604 26.911868750398714, -101.6850230897284 26.891930983783816, -101.899302435704 26.847001329696653 M-101.49484795140367 26.931806517013612 C-101.64307673354274 26.90072620977752, -101.79130551568181 26.869645902541432, -101.899302435704 26.847001329696653 M-101.899302435704 26.847001329696653 C-101.99321860984747 26.81904127323282, -102.08713478399095 26.79108121676899, -102.29537234602341 26.729086208503173 M-101.899302435704 26.847001329696653 C-102.04876073067797 26.80250566742578, -102.19821902565195 26.75801000515491, -102.29537234602341 26.729086208503173 M-102.29537234602341 26.729086208503173 C-102.43935032426289 26.67290582706007, -102.58332830250237 26.61672544561697, -102.68035212326485 26.578866633275286 M-102.29537234602341 26.729086208503173 C-102.38496214946271 26.69412815872239, -102.474551952902 26.65917010894161, -102.68035212326485 26.578866633275286 M-102.68035212326485 26.578866633275286 C-102.76986661264398 26.53510566596801, -102.85938110202311 26.491344698660733, -103.05161196518537 26.397368756032446 M-102.68035212326485 26.578866633275286 C-102.77717591590515 26.53153236534071, -102.87399970854544 26.484198097406132, -103.05161196518537 26.397368756032446 M-103.05161196518537 26.397368756032446 C-103.15832140289181 26.333783732669445, -103.26503084059826 26.270198709306445, -103.40661579061214 26.185832391312644 M-103.05161196518537 26.397368756032446 C-103.13448690865117 26.347986008547853, -103.21736185211697 26.298603261063263, -103.40661579061214 26.185832391312644 M-103.40661579061214 26.185832391312644 C-103.48018391105005 26.133305762920877, -103.55375203148796 26.08077913452911, -103.74293856344833 25.94570254698197 M-103.40661579061214 26.185832391312644 C-103.48694291187282 26.128479929089544, -103.56727003313348 26.071127466866443, -103.74293856344833 25.94570254698197 M-103.74293856344833 25.94570254698197 C-103.83350150328694 25.868999649574853, -103.92406444312554 25.792296752167736, -104.0582828581287 25.67861955336566 M-103.74293856344833 25.94570254698197 C-103.85277814295095 25.85267316859778, -103.96261772245357 25.759643790213584, -104.0582828581287 25.67861955336566 M-104.0582828581287 25.67861955336566 C-104.16922247517698 25.56767993631739, -104.28016209222525 25.45674031926912, -104.35049455336566 25.386407858128706 M-104.0582828581287 25.67861955336566 C-104.17298944847667 25.563912963017703, -104.28769603882462 25.44920637266975, -104.35049455336566 25.386407858128706 M-104.35049455336566 25.386407858128706 C-104.43009564309295 25.29242302908375, -104.50969673282026 25.198438200038797, -104.61757754698196 25.07106356344834 M-104.35049455336566 25.386407858128706 C-104.42336013336651 25.30037563039033, -104.49622571336737 25.214343402651956, -104.61757754698196 25.07106356344834 M-104.61757754698196 25.07106356344834 C-104.68580913019666 24.975499285189912, -104.75404071341134 24.879935006931486, -104.85770739131264 24.734740790612133 M-104.61757754698196 25.07106356344834 C-104.70024440816088 24.955281420454604, -104.78291126933979 24.839499277460863, -104.85770739131264 24.734740790612133 M-104.85770739131264 24.734740790612133 C-104.9113750445613 24.64467484743407, -104.96504269780995 24.55460890425601, -105.06924375603245 24.37973696518537 M-104.85770739131264 24.734740790612133 C-104.92378752757803 24.623844013171492, -104.98986766384341 24.512947235730856, -105.06924375603245 24.37973696518537 M-105.06924375603245 24.37973696518537 C-105.10795586024358 24.300550090340526, -105.1466679644547 24.22136321549568, -105.25074163327528 24.00847712326485 M-105.06924375603245 24.37973696518537 C-105.10973693215445 24.296906849515214, -105.15023010827645 24.214076733845058, -105.25074163327528 24.00847712326485 M-105.25074163327528 24.00847712326485 C-105.30903962303253 23.85907218002544, -105.3673376127898 23.709667236786025, -105.40096120850318 23.623497346023417 M-105.25074163327528 24.00847712326485 C-105.28231406060719 23.92756392654752, -105.31388648793909 23.84665072983019, -105.40096120850318 23.623497346023417 M-105.40096120850318 23.623497346023417 C-105.4405089215019 23.490658919685842, -105.48005663450064 23.357820493348267, -105.51887632969665 23.227427435703994 M-105.40096120850318 23.623497346023417 C-105.43254351407226 23.517414251609207, -105.46412581964135 23.411331157194997, -105.51887632969665 23.227427435703994 M-105.51887632969665 23.227427435703994 C-105.54961301875727 23.080837443789374, -105.58034970781789 22.934247451874754, -105.60368151701361 22.82297295140367 M-105.51887632969665 23.227427435703994 C-105.54130771182255 23.120447268842668, -105.56373909394846 23.01346710198134, -105.60368151701361 22.82297295140367 M-105.60368151701361 22.82297295140367 C-105.62320644338676 22.66633479067329, -105.64273136975993 22.50969662994291, -105.65479746503335 22.412896727361662 M-105.60368151701361 22.82297295140367 C-105.61637479256832 22.721141513039466, -105.62906806812303 22.619310074675262, -105.65479746503335 22.412896727361662 M-105.65479746503335 22.412896727361662 C-105.66137238850324 22.253929734252154, -105.66794731197314 22.09496274114265, -105.671875 22 M-105.65479746503335 22.412896727361662 C-105.65865107952187 22.319724919256387, -105.6625046940104 22.22655311115111, -105.671875 22 M-105.671875 22 C-105.671875 22, -105.671875 22, -105.671875 22 M-105.671875 22 C-105.671875 22, -105.671875 22, -105.671875 22 M-105.671875 22 C-105.671875 7.655381300595554, -105.671875 -6.689237398808892, -105.671875 -22 M-105.671875 22 C-105.671875 8.521961070315156, -105.671875 -4.956077859369689, -105.671875 -22 M-105.671875 -22 C-105.671875 -22, -105.671875 -22, -105.671875 -22 M-105.671875 -22 C-105.671875 -22, -105.671875 -22, -105.671875 -22 M-105.671875 -22 C-105.66727994492054 -22.11109818882306, -105.66268488984107 -22.222196377646124, -105.65479746503335 -22.41289672736166 M-105.671875 -22 C-105.66624933483222 -22.136016043389763, -105.66062366966442 -22.27203208677953, -105.65479746503335 -22.41289672736166 M-105.65479746503335 -22.41289672736166 C-105.63989967661402 -22.532413806830032, -105.62500188819469 -22.651930886298402, -105.60368151701361 -22.82297295140367 M-105.65479746503335 -22.41289672736166 C-105.63714120423612 -22.554543572210118, -105.61948494343886 -22.696190417058574, -105.60368151701361 -22.82297295140367 M-105.60368151701361 -22.82297295140367 C-105.57981589969054 -22.936793299572145, -105.55595028236748 -23.05061364774062, -105.51887632969665 -23.227427435703994 M-105.60368151701361 -22.82297295140367 C-105.57132125871595 -22.977306100066965, -105.53896100041828 -23.131639248730263, -105.51887632969665 -23.227427435703994 M-105.51887632969665 -23.227427435703994 C-105.48595377516016 -23.338012347043396, -105.45303122062367 -23.448597258382794, -105.40096120850318 -23.623497346023417 M-105.51887632969665 -23.227427435703994 C-105.48446074598806 -23.343027343630013, -105.45004516227948 -23.45862725155603, -105.40096120850318 -23.623497346023417 M-105.40096120850318 -23.623497346023417 C-105.34231720964243 -23.773789034598003, -105.28367321078169 -23.92408072317259, -105.25074163327528 -24.008477123264846 M-105.40096120850318 -23.623497346023417 C-105.36219742503155 -23.722840409025032, -105.32343364155993 -23.822183472026644, -105.25074163327528 -24.008477123264846 M-105.25074163327528 -24.008477123264846 C-105.20774921066742 -24.096419529333986, -105.16475678805955 -24.18436193540312, -105.06924375603245 -24.379736965185366 M-105.25074163327528 -24.008477123264846 C-105.20981097005698 -24.092202133094023, -105.16888030683867 -24.1759271429232, -105.06924375603245 -24.379736965185366 M-105.06924375603245 -24.379736965185366 C-105.01062182461433 -24.478117259915784, -104.95199989319622 -24.576497554646203, -104.85770739131264 -24.734740790612133 M-105.06924375603245 -24.379736965185366 C-105.00085478321064 -24.49450847031597, -104.93246581038883 -24.609279975446572, -104.85770739131264 -24.734740790612133 M-104.85770739131264 -24.734740790612133 C-104.77525960730893 -24.850216096930765, -104.6928118233052 -24.9656914032494, -104.61757754698196 -25.07106356344834 M-104.85770739131264 -24.734740790612133 C-104.77957398640966 -24.844173433028363, -104.70144058150669 -24.953606075444593, -104.61757754698196 -25.07106356344834 M-104.61757754698196 -25.07106356344834 C-104.52468050369767 -25.180746895193757, -104.43178346041339 -25.290430226939176, -104.35049455336566 -25.386407858128706 M-104.61757754698196 -25.07106356344834 C-104.52383797838867 -25.181741662946365, -104.43009840979536 -25.29241976244439, -104.35049455336566 -25.386407858128706 M-104.35049455336566 -25.386407858128706 C-104.25370212472099 -25.483200286773382, -104.15690969607631 -25.579992715418058, -104.0582828581287 -25.678619553365657 M-104.35049455336566 -25.386407858128706 C-104.23392939475677 -25.5029730167376, -104.11736423614788 -25.61953817534649, -104.0582828581287 -25.678619553365657 M-104.0582828581287 -25.678619553365657 C-103.951704530742 -25.768886792105175, -103.84512620335532 -25.85915403084469, -103.74293856344833 -25.945702546981966 M-104.0582828581287 -25.678619553365657 C-103.94234088258783 -25.77681739754937, -103.82639890704695 -25.875015241733085, -103.74293856344833 -25.945702546981966 M-103.74293856344833 -25.945702546981966 C-103.6477184292495 -26.01368841606092, -103.55249829505067 -26.081674285139876, -103.40661579061214 -26.185832391312644 M-103.74293856344833 -25.945702546981966 C-103.63320839738884 -26.02404837968321, -103.52347823132936 -26.10239421238446, -103.40661579061214 -26.185832391312644 M-103.40661579061214 -26.185832391312644 C-103.32294869630027 -26.235687158246844, -103.23928160198841 -26.28554192518104, -103.05161196518537 -26.397368756032446 M-103.40661579061214 -26.185832391312644 C-103.3130703034901 -26.241573402717098, -103.21952481636806 -26.297314414121555, -103.05161196518537 -26.397368756032446 M-103.05161196518537 -26.397368756032446 C-102.9773074937451 -26.43369399866116, -102.90300302230483 -26.470019241289872, -102.68035212326485 -26.578866633275286 M-103.05161196518537 -26.397368756032446 C-102.94791324168843 -26.44806397286529, -102.84421451819148 -26.498759189698138, -102.68035212326485 -26.578866633275286 M-102.68035212326485 -26.578866633275286 C-102.56857231820096 -26.62248324855849, -102.45679251313707 -26.666099863841694, -102.29537234602341 -26.729086208503173 M-102.68035212326485 -26.578866633275286 C-102.55149726348873 -26.629145955582338, -102.42264240371259 -26.67942527788939, -102.29537234602341 -26.729086208503173 M-102.29537234602341 -26.729086208503173 C-102.1791013470257 -26.76370158468018, -102.06283034802802 -26.798316960857193, -101.899302435704 -26.847001329696653 M-102.29537234602341 -26.729086208503173 C-102.21117443441639 -26.75415301285439, -102.12697652280937 -26.7792198172056, -101.899302435704 -26.847001329696653 M-101.899302435704 -26.847001329696653 C-101.79178731179628 -26.869544880519616, -101.68427218788858 -26.89208843134258, -101.49484795140367 -26.931806517013612 M-101.899302435704 -26.847001329696653 C-101.75855338373313 -26.876513302441182, -101.61780433176224 -26.906025275185716, -101.49484795140367 -26.931806517013612 M-101.49484795140367 -26.931806517013612 C-101.35173027158339 -26.949646117198892, -101.20861259176311 -26.96748571738417, -101.08477172736167 -26.982922465033347 M-101.49484795140367 -26.931806517013612 C-101.37105381714957 -26.947237439755995, -101.24725968289547 -26.96266836249838, -101.08477172736167 -26.982922465033347 M-101.08477172736167 -26.982922465033347 C-100.93030034027815 -26.9893114488626, -100.77582895319463 -26.99570043269186, -100.671875 -27 M-101.08477172736167 -26.982922465033347 C-100.95404502178512 -26.988329361570948, -100.82331831620856 -26.99373625810855, -100.671875 -27 M-100.671875 -27 C-100.671875 -27, -100.671875 -27, -100.671875 -27 M-100.671875 -27 C-100.671875 -27, -100.671875 -27, -100.671875 -27" stroke="#ccc" stroke-width="1.3" fill="none" stroke-dasharray="0 0" style=""/></g><g class="label" style="" transform="translate(-90.671875, -12)"><rect/><foreignObject width="181.34375" height="24"><div xmlns="http://www.w3.org/1999/xhtml" style="display: table-cell; white-space: nowrap; line-height: 1.5; max-width: 200px; text-align: center;"><span class="nodeLabel "><p>Kyverno Admission Control</p></span></div></foreignObject></g></g><g class="node default  " id="flowchart-Blocked-3" transform="translate(106.2109375, 305.4375)"><rect class="basic label-container" style="" x="-98.2109375" y="-27" width="196.421875" height="54"/><g class="label" style="" transform="translate(-68.2109375, -12)"><rect/><foreignObject width="136.421875" height="24"><div xmlns="http://www.w3.org/1999/xhtml" style="display: table-cell; white-space: nowrap; line-height: 1.5; max-width: 200px; text-align: center;"><span class="nodeLabel "><p>Deployment Blocked</p></span></div></foreignObject></g></g><g class="node default  " id="flowchart-Runtime-5" transform="translate(319.859375, 305.4375)"><polygon points="65.4375,0 130.875,-65.4375 65.4375,-130.875 0,-65.4375" class="label-container" transform="translate(-64.9375, 65.4375)"/><g class="label" style="" transform="translate(-38.4375, -12)"><rect/><foreignObject width="76.875" height="24"><div xmlns="http://www.w3.org/1999/xhtml" style="display: table-cell; white-space: nowrap; line-height: 1.5; max-width: 200px; text-align: center;"><span class="nodeLabel "><p>eBPF Layer</p></span></div></foreignObject></g></g><g class="node default  " id="flowchart-Falco-7" transform="translate(233.9765625, 471.875)"><rect class="basic label-container" style="" x="-47.7734375" y="-27" width="95.546875" height="54"/><g class="label" style="" transform="translate(-17.7734375, -12)"><rect/><foreignObject width="35.546875" height="24"><div xmlns="http://www.w3.org/1999/xhtml" style="display: table-cell; white-space: nowrap; line-height: 1.5; max-width: 200px; text-align: center;"><span class="nodeLabel "><p>Falco</p></span></div></foreignObject></g></g><g class="node default  " id="flowchart-Tetragon-9" transform="translate(397.90625, 471.875)"><rect class="basic label-container" style="" x="-58.3203125" y="-27" width="116.640625" height="54"/><g class="label" style="" transform="translate(-28.3203125, -12)"><rect/><foreignObject width="56.640625" height="24"><div xmlns="http://www.w3.org/1999/xhtml" style="display: table-cell; white-space: nowrap; line-height: 1.5; max-width: 200px; text-align: center;"><span class="nodeLabel "><p>Tetragon</p></span></div></foreignObject></g></g><g class="node default  " id="flowchart-Sigkill-11" transform="translate(156.25390625, 599.875)"><rect class="basic label-container" style="" x="-87.25" y="-27" width="174.5" height="54"/><g class="label" style="" transform="translate(-57.25, -12)"><rect/><foreignObject width="114.5" height="24"><div xmlns="http://www.w3.org/1999/xhtml" style="display: table-cell; white-space: nowrap; line-height: 1.5; max-width: 200px; text-align: center;"><span class="nodeLabel "><p>SIGKILL Process</p></span></div></foreignObject></g></g><g class="node default  " id="flowchart-Shuffle-13" transform="translate(370.25390625, 599.875)"><rect class="basic label-container" style="" x="-76.75" y="-27" width="153.5" height="54"/><g class="label" style="" transform="translate(-46.75, -12)"><rect/><foreignObject width="93.5" height="24"><div xmlns="http://www.w3.org/1999/xhtml" style="display: table-cell; white-space: nowrap; line-height: 1.5; max-width: 200px; text-align: center;"><span class="nodeLabel "><p>Shuffle SOAR</p></span></div></foreignObject></g></g><g class="node default  " id="flowchart-Playbook-19" transform="translate(370.25390625, 703.875)"><rect class="basic label-container" style="" x="-87.984375" y="-27" width="175.96875" height="54"/><g class="label" style="" transform="translate(-57.984375, -12)"><rect/><foreignObject width="115.96875" height="24"><div xmlns="http://www.w3.org/1999/xhtml" style="display: table-cell; white-space: nowrap; line-height: 1.5; max-width: 200px; text-align: center;"><span class="nodeLabel "><p>Execute Playbook</p></span></div></foreignObject></g></g></g></g></g></svg>